<svg width="10" height="18" viewBox="0 0 10 18" fill="none" xmlns="http://www.w3.org/2000/svg">
<path d="M4.58333 17.3333C3.31944 17.3333 2.23958 16.8993 1.34375 16.0313C0.447917 15.1632 0 14.0972 0 12.8333V3.87501C0 2.98612 0.315972 2.22917 0.947917 1.60417C1.57986 0.979172 2.34028 0.666672 3.22917 0.666672C4.13194 0.666672 4.89583 0.979172 5.52083 1.60417C6.14583 2.22917 6.45833 2.99306 6.45833 3.89584V12.1042C6.45833 12.6319 6.27778 13.0799 5.91667 13.4479C5.55556 13.816 5.11111 14 4.58333 14C4.05556 14 3.61111 13.8021 3.25 13.4063C2.88889 13.0104 2.70833 12.5417 2.70833 12V3.83334H3.54167V12.0625C3.54167 12.3681 3.64236 12.6285 3.84375 12.8438C4.04514 13.059 4.29167 13.1667 4.58333 13.1667C4.875 13.1667 5.12153 13.0625 5.32292 12.8542C5.52431 12.6458 5.625 12.3958 5.625 12.1042V3.87501C5.625 3.20834 5.39236 2.64584 4.92708 2.18751C4.46181 1.72917 3.89583 1.50001 3.22917 1.50001C2.5625 1.50001 1.99653 1.72917 1.53125 2.18751C1.06597 2.64584 0.833333 3.20834 0.833333 3.87501V12.875C0.833333 13.8889 1.20139 14.7465 1.9375 15.4479C2.67361 16.1493 3.55556 16.5 4.58333 16.5C5.625 16.5 6.51042 16.1458 7.23958 15.4375C7.96875 14.7292 8.33333 13.8611 8.33333 12.8333V3.83334H9.16667V12.8125C9.16667 14.0764 8.71875 15.1458 7.82292 16.0208C6.92708 16.8958 5.84722 17.3333 4.58333 17.3333Z" fill="black" fill-opacity="0.6"/>
</svg>
