<svg width="18" height="18" viewBox="0 0 18 18" fill="none" xmlns="http://www.w3.org/2000/svg">
<path d="M11.2498 8.5415L7.229 4.52067C7.46511 4.32623 7.73248 4.17692 8.03109 4.07275C8.3297 3.96859 8.65261 3.9165 8.99984 3.9165C9.80539 3.9165 10.4825 4.19081 11.0311 4.73942C11.5797 5.28803 11.854 5.96511 11.854 6.77067C11.854 7.11789 11.8019 7.44081 11.6978 7.73942C11.5936 8.03803 11.4443 8.30539 11.2498 8.5415ZM3.62484 13.6873C4.49984 13.0762 5.35748 12.6075 6.19775 12.2811C7.03803 11.9547 7.97206 11.7915 8.99984 11.7915C9.51373 11.7915 9.96859 11.8297 10.3644 11.9061C10.7603 11.9825 11.1179 12.0762 11.4373 12.1873L8.87484 9.62484C8.12484 9.59706 7.50331 9.34359 7.01025 8.86442C6.5172 8.38525 6.23595 7.77067 6.1665 7.02067L3.5415 4.39567C3.02761 5.02067 2.62831 5.71164 2.34359 6.46859C2.05886 7.22553 1.9165 8.06928 1.9165 8.99984C1.9165 9.84706 2.04845 10.6526 2.31234 11.4165C2.57623 12.1804 3.01373 12.9373 3.62484 13.6873ZM14.479 13.5623C14.9651 12.979 15.354 12.3019 15.6457 11.5311C15.9373 10.7603 16.0832 9.9165 16.0832 8.99984C16.0832 6.98595 15.4061 5.30192 14.0519 3.94775C12.6978 2.59359 11.0137 1.9165 8.99984 1.9165C8.02761 1.9165 7.1665 2.06234 6.4165 2.354C5.6665 2.64567 4.99984 3.02761 4.4165 3.49984L14.479 13.5623ZM8.99984 17.3332C7.86095 17.3332 6.78456 17.1144 5.77067 16.6769C4.75678 16.2394 3.87136 15.6422 3.11442 14.8853C2.35748 14.1283 1.76025 13.2429 1.32275 12.229C0.885254 11.2151 0.666504 10.1387 0.666504 8.99984C0.666504 7.84706 0.885254 6.7672 1.32275 5.76025C1.76025 4.75331 2.35748 3.87136 3.11442 3.11442C3.87136 2.35748 4.75678 1.76025 5.77067 1.32275C6.78456 0.885254 7.86095 0.666504 8.99984 0.666504C10.1526 0.666504 11.2325 0.885254 12.2394 1.32275C13.2464 1.76025 14.1283 2.35748 14.8853 3.11442C15.6422 3.87136 16.2394 4.75331 16.6769 5.76025C17.1144 6.7672 17.3332 7.84706 17.3332 8.99984C17.3332 10.1387 17.1144 11.2151 16.6769 12.229C16.2394 13.2429 15.6422 14.1283 14.8853 14.8853C14.1283 15.6422 13.2464 16.2394 12.2394 16.6769C11.2325 17.1144 10.1526 17.3332 8.99984 17.3332ZM8.99984 16.0832C9.81928 16.0832 10.5797 15.9651 11.2811 15.729C11.9825 15.4929 12.6873 15.1109 13.3957 14.5832C12.6873 14.0832 11.9651 13.7012 11.229 13.4373C10.4929 13.1734 9.74984 13.0415 8.99984 13.0415C8.24984 13.0415 7.50678 13.1734 6.77067 13.4373C6.03456 13.7012 5.31234 14.0832 4.604 14.5832C5.31234 15.1109 6.02067 15.4929 6.729 15.729C7.43734 15.9651 8.19428 16.0832 8.99984 16.0832Z" fill="#8B0C69"/>
</svg>
