<svg width="22" height="18" viewBox="0 0 22 18" fill="none" xmlns="http://www.w3.org/2000/svg">
<rect width="22" height="18" fill="#1E1E1E"/>
<g clip-path="url(#clip0_0_1)">
<rect x="-331" y="-51" width="375" height="2325" rx="10" fill="white"/>
<g clip-path="url(#clip1_0_1)">
<path d="M18.0652 13.7167L11.4991 13.8121L11.5205 15.2903L10.1805 15.3098L10.1218 11.2717L11.4619 11.2522L11.4833 12.7304L18.0495 12.6351L18.0652 13.7167ZM8.81897 13.851L3.7715 13.9243L3.75579 12.8427L8.80326 12.7694L8.81897 13.851ZM7.85981 10.8718L6.51978 10.8912L6.49831 9.41297L3.70656 9.45352L3.69085 8.37187L6.48259 8.33132L6.46112 6.85307L7.80116 6.8336L7.85981 10.8718ZM18.0003 9.24591L9.17838 9.37404L9.16267 8.29239L17.9846 8.16426L18.0003 9.24591ZM17.9354 4.77509L15.0989 4.81629L15.1204 6.29454L13.7804 6.31401L13.7217 2.27585L15.0618 2.25639L15.0832 3.73464L17.9196 3.69344L17.9354 4.77509ZM12.4189 4.85522L3.64162 4.9827L3.62591 3.90106L12.4032 3.77357L12.4189 4.85522Z" fill="black"/>
</g>
</g>
<defs>
<clipPath id="clip0_0_1">
<rect x="-331" y="-51" width="375" height="2325" rx="10" fill="white"/>
</clipPath>
<clipPath id="clip1_0_1">
<rect width="17.3082" height="21.4429" fill="white" transform="translate(0.250977 17.6178) rotate(-90.8322)"/>
</clipPath>
</defs>
</svg>
