<svg width="28" height="29" viewBox="0 0 28 29" fill="none" xmlns="http://www.w3.org/2000/svg">
<path fill-rule="evenodd" clip-rule="evenodd" d="M21.8901 28.1889C20.8079 27.7785 19.8851 27.2474 19.1584 26.7494C17.5641 27.3949 15.8222 27.75 14 27.75C6.40609 27.75 0.25 21.5939 0.25 14C0.25 6.40609 6.40609 0.25 14 0.25C21.5939 0.25 27.75 6.40609 27.75 14C27.75 16.8485 26.8825 19.4979 25.3974 21.6939C25.3031 23.5096 26.2567 25.1502 27.2465 26.602C28.1134 27.8734 27.8959 28.898 26.2795 28.9896C25.555 29.0306 23.988 28.9843 21.8901 28.1889ZM2.75 14C2.75 7.7868 7.78679 2.75 14 2.75C20.2132 2.75 25.25 7.7868 25.25 14C25.25 16.4379 24.476 18.6914 23.1601 20.5327C22.5777 21.3477 22.8772 22.8748 23.077 23.7514C23.2709 24.6022 23.6915 25.5064 24.107 26.2654C23.7092 26.1695 23.2639 26.036 22.7765 25.8513C21.6549 25.4259 20.728 24.828 20.0742 24.3263C19.7032 24.0415 19.2044 23.9878 18.7812 24.1868C17.3317 24.8684 15.7121 25.25 14 25.25C7.78679 25.25 2.75 20.2132 2.75 14ZM8.99999 12.0953C8.99999 11.0874 9.82815 10.25 10.875 10.25C11.9219 10.25 12.75 11.0874 12.75 12.0953C12.75 12.7856 13.3096 13.3453 14 13.3453C14.6904 13.3453 15.25 12.7856 15.25 12.0953C15.25 11.0874 16.0781 10.25 17.125 10.25C18.1719 10.25 19 11.0874 19 12.0953C19 13.3261 18.2817 14.6956 17.0804 16.0979C16.1467 17.1876 15.0214 18.1828 14 19.0114C12.9786 18.1828 11.8532 17.1876 10.9197 16.0979C9.71829 14.6956 8.99999 13.3261 8.99999 12.0953ZM10.875 7.75C12.0956 7.75 13.2041 8.24823 14 9.05416C14.7959 8.24823 15.9044 7.75 17.125 7.75C19.53 7.75 21.5 9.68418 21.5 12.0953C21.5 14.2355 20.2995 16.183 18.9789 17.7245C17.6324 19.2961 15.9871 20.6444 14.7679 21.5935C14.3162 21.945 13.6837 21.945 13.2321 21.5935C12.0129 20.6444 10.3676 19.2961 9.02111 17.7245C7.70055 16.183 6.49999 14.2355 6.49999 12.0953C6.49999 9.68418 8.47005 7.75 10.875 7.75Z" fill="white"/>
</svg>
