<svg width="18" height="16" viewBox="0 0 18 16" fill="none" xmlns="http://www.w3.org/2000/svg">
<path d="M9.00033 15.4792L8.14616 14.7084C6.67716 13.3595 5.46269 12.1959 4.50274 11.2175C3.5428 10.2392 2.7781 9.36462 2.20866 8.59379C1.63921 7.82296 1.23991 7.12504 1.01074 6.50004C0.781576 5.87504 0.666992 5.2431 0.666992 4.60421C0.666992 3.35205 1.08713 2.30638 1.92741 1.46719C2.76769 0.627978 3.80588 0.208374 5.04199 0.208374C5.83366 0.208374 6.5663 0.395874 7.23991 0.770874C7.91352 1.14587 8.50033 1.68754 9.00033 2.39587C9.58366 1.64587 10.2017 1.09379 10.8545 0.739624C11.5073 0.385457 12.2087 0.208374 12.9587 0.208374C14.1948 0.208374 15.233 0.627978 16.0732 1.46719C16.9135 2.30638 17.3337 3.35205 17.3337 4.60421C17.3337 5.2431 17.2191 5.87504 16.9899 6.50004C16.7607 7.12504 16.3614 7.82296 15.792 8.59379C15.2225 9.36462 14.4579 10.2392 13.4979 11.2175C12.538 12.1959 11.3235 13.3595 9.85449 14.7084L9.00033 15.4792ZM9.00033 13.8334C10.4064 12.5418 11.5634 11.4342 12.4715 10.5105C13.3796 9.58686 14.101 8.77782 14.6357 8.08337C15.1705 7.38893 15.5455 6.76994 15.7607 6.22639C15.976 5.68284 16.0837 5.14312 16.0837 4.60723C16.0837 3.68855 15.792 2.93407 15.2087 2.34379C14.6253 1.75351 13.8769 1.45837 12.9633 1.45837C12.2477 1.45837 11.5854 1.67712 10.9764 2.11462C10.3673 2.55212 9.87533 3.16671 9.50033 3.95837H8.47949C8.11838 3.1806 7.63331 2.56949 7.02428 2.12504C6.41524 1.6806 5.75292 1.45837 5.0373 1.45837C4.12376 1.45837 3.37533 1.75351 2.79199 2.34379C2.20866 2.93407 1.91699 3.68973 1.91699 4.61079C1.91699 5.14807 2.02463 5.69101 2.23991 6.23962C2.45519 6.78824 2.83019 7.41324 3.36491 8.11462C3.89963 8.81601 4.62533 9.62504 5.54199 10.5417C6.45866 11.4584 7.61144 12.5556 9.00033 13.8334Z" fill="black" fill-opacity="0.7"/>
</svg>
