<svg width="60" height="60" viewBox="0 0 60 60" fill="none" xmlns="http://www.w3.org/2000/svg">
<path d="M46.875 24.375C46.875 19.8995 45.0971 15.6072 41.9324 12.4426C38.7677 9.2779 34.4755 7.5 30 7.5C25.5245 7.5 21.2322 9.2779 18.0676 12.4426C14.9029 15.6072 13.125 19.8995 13.125 24.375C13.125 31.2975 18.6637 40.32 30 51.1275C41.3363 40.32 46.875 31.2975 46.875 24.375ZM30 56.25C16.2487 43.7513 9.375 33.1238 9.375 24.375C9.375 18.9049 11.548 13.6589 15.4159 9.79092C19.2839 5.92299 24.5299 3.75 30 3.75C35.4701 3.75 40.7161 5.92299 44.5841 9.79092C48.452 13.6589 50.625 18.9049 50.625 24.375C50.625 33.1238 43.7513 43.7513 30 56.25Z" fill="#8B0C69"/>
<path d="M30 26.25C30.9946 26.25 31.9484 25.8549 32.6516 25.1516C33.3549 24.4484 33.75 23.4946 33.75 22.5C33.75 21.5054 33.3549 20.5516 32.6516 19.8484C31.9484 19.1451 30.9946 18.75 30 18.75C29.0054 18.75 28.0516 19.1451 27.3484 19.8484C26.6451 20.5516 26.25 21.5054 26.25 22.5C26.25 23.4946 26.6451 24.4484 27.3484 25.1516C28.0516 25.8549 29.0054 26.25 30 26.25ZM30 30C28.0109 30 26.1032 29.2098 24.6967 27.8033C23.2902 26.3968 22.5 24.4891 22.5 22.5C22.5 20.5109 23.2902 18.6032 24.6967 17.1967C26.1032 15.7902 28.0109 15 30 15C31.9891 15 33.8968 15.7902 35.3033 17.1967C36.7098 18.6032 37.5 20.5109 37.5 22.5C37.5 24.4891 36.7098 26.3968 35.3033 27.8033C33.8968 29.2098 31.9891 30 30 30ZM50.25 41.25L56.25 56.25H39.375V52.5H20.625V56.25H3.75L9.75 41.25H50.25ZM46.2113 41.25H13.7887L9.28875 52.5H50.7113L46.2113 41.25Z" fill="#8B0C69"/>
</svg>
