<svg width="20" height="20" viewBox="0 0 20 20" fill="none" xmlns="http://www.w3.org/2000/svg">
<path d="M9 18V16.94C7.06627 16.6964 5.28799 15.7552 3.99909 14.2932C2.71019 12.8312 1.99933 10.949 2 9H4C4 10.5913 4.63214 12.1174 5.75736 13.2426C6.88258 14.3679 8.4087 15 10 15C11.5913 15 13.1174 14.3679 14.2426 13.2426C15.3679 12.1174 16 10.5913 16 9H18C18.0007 10.949 17.2898 12.8312 16.0009 14.2932C14.712 15.7552 12.9337 16.6964 11 16.94V18H14V20H6V18H9ZM6 4C6 2.93913 6.42143 1.92172 7.17157 1.17157C7.92172 0.421427 8.93913 0 10 0C11.0609 0 12.0783 0.421427 12.8284 1.17157C13.5786 1.92172 14 2.93913 14 4V9C14 10.0609 13.5786 11.0783 12.8284 11.8284C12.0783 12.5786 11.0609 13 10 13C8.93913 13 7.92172 12.5786 7.17157 11.8284C6.42143 11.0783 6 10.0609 6 9V4Z" fill="white"/>
</svg>
