<svg width="31" height="30" viewBox="0 0 31 30" fill="none" xmlns="http://www.w3.org/2000/svg">
<g clip-path="url(#clip0_79_1592)">
<path d="M0.96875 15C0.96875 21.1406 5.0375 26.3438 10.6562 28.2656V1.73438C5.0375 3.65625 0.96875 8.85938 0.96875 15Z" fill="#83BF4F"/>
<path d="M30.0312 15C30.0312 8.85938 26.0109 3.65625 20.3438 1.73438V28.2656C26.0109 26.3438 30.0312 21.1406 30.0312 15Z" fill="#83BF4F"/>
<path d="M10.6562 28.2656C12.1578 28.7812 13.8047 29.0625 15.5 29.0625C17.1953 29.0625 18.8422 28.7812 20.3438 28.2656V1.73438C18.8422 1.21875 17.1953 0.9375 15.5 0.9375C13.8047 0.9375 12.1578 1.21875 10.6562 1.73438V28.2656Z" fill="#F9F9F9"/>
</g>
<defs>
<clipPath id="clip0_79_1592">
<rect width="31" height="30" fill="white"/>
</clipPath>
</defs>
</svg>
