<svg width="14" height="19" viewBox="0 0 14 19" fill="none" xmlns="http://www.w3.org/2000/svg">
<path d="M1.58301 18.3335C1.23926 18.3335 0.944987 18.2111 0.700195 17.9663C0.455404 17.7215 0.333008 17.4272 0.333008 17.0835V8.04183C0.333008 7.69808 0.455404 7.40381 0.700195 7.15902C0.944987 6.91423 1.23926 6.79183 1.58301 6.79183H3.04134V4.79183C3.04134 3.69669 3.42749 2.76318 4.1998 1.99131C4.9721 1.21943 5.90613 0.833496 7.00188 0.833496C8.09763 0.833496 9.03092 1.21943 9.80176 1.99131C10.5726 2.76318 10.958 3.69669 10.958 4.79183V6.79183H12.4163C12.7601 6.79183 13.0544 6.91423 13.2992 7.15902C13.5439 7.40381 13.6663 7.69808 13.6663 8.04183V17.0835C13.6663 17.4272 13.5439 17.7215 13.2992 17.9663C13.0544 18.2111 12.7601 18.3335 12.4163 18.3335H1.58301ZM1.58301 17.0835H12.4163V8.04183H1.58301V17.0835ZM7.00317 14.1668C7.44529 14.1668 7.82259 14.0138 8.13509 13.7079C8.44759 13.4019 8.60384 13.034 8.60384 12.6043C8.60384 12.1877 8.44642 11.8092 8.13159 11.4689C7.81676 11.1286 7.43829 10.9585 6.99617 10.9585C6.55406 10.9585 6.17676 11.1286 5.86426 11.4689C5.55176 11.8092 5.39551 12.1911 5.39551 12.6147C5.39551 13.0384 5.55292 13.4029 5.86776 13.7085C6.18259 14.0141 6.56106 14.1668 7.00317 14.1668ZM4.29134 6.79183H9.70801V4.79183C9.70801 4.03951 9.44494 3.40004 8.9188 2.87343C8.39265 2.34681 7.75376 2.0835 7.00213 2.0835C6.25049 2.0835 5.61079 2.34681 5.08301 2.87343C4.55523 3.40004 4.29134 4.03951 4.29134 4.79183V6.79183Z" fill="#8B0C69"/>
</svg>
