<svg width="18" height="16" viewBox="0 0 18 16" fill="none" xmlns="http://www.w3.org/2000/svg">
<path d="M8.98991 12.4583C9.99685 12.4583 10.8406 12.1181 11.5212 11.4375C12.2017 10.7569 12.542 9.91319 12.542 8.90625C12.542 7.89931 12.2017 7.05903 11.5212 6.38542C10.8406 5.71181 9.99685 5.375 8.98991 5.375C7.98296 5.375 7.14269 5.71181 6.46908 6.38542C5.79546 7.05903 5.45866 7.89931 5.45866 8.90625C5.45866 9.91319 5.79546 10.7569 6.46908 11.4375C7.14269 12.1181 7.98296 12.4583 8.98991 12.4583ZM8.98991 11.2083C8.33019 11.2083 7.78505 10.9896 7.35449 10.5521C6.92394 10.1146 6.70866 9.56597 6.70866 8.90625C6.70866 8.24653 6.92394 7.70139 7.35449 7.27083C7.78505 6.84028 8.33019 6.625 8.98991 6.625C9.64963 6.625 10.1982 6.84028 10.6357 7.27083C11.0732 7.70139 11.292 8.24653 11.292 8.90625C11.292 9.56597 11.0732 10.1146 10.6357 10.5521C10.1982 10.9896 9.64963 11.2083 8.98991 11.2083ZM1.91699 15.5C1.58366 15.5 1.29199 15.375 1.04199 15.125C0.791992 14.875 0.666992 14.5833 0.666992 14.25V3.5625C0.666992 3.24306 0.791992 2.95486 1.04199 2.69792C1.29199 2.44097 1.58366 2.3125 1.91699 2.3125H4.97949L6.50033 0.5H11.5003L13.0212 2.3125H16.0837C16.4031 2.3125 16.6913 2.44097 16.9482 2.69792C17.2052 2.95486 17.3337 3.24306 17.3337 3.5625V14.25C17.3337 14.5833 17.2052 14.875 16.9482 15.125C16.6913 15.375 16.4031 15.5 16.0837 15.5H1.91699ZM16.0837 14.25V3.5625H12.4378L10.917 1.75H7.08366L5.56283 3.5625H1.91699V14.25H16.0837Z" fill="black" fill-opacity="0.6"/>
</svg>
