<svg width="20" height="20" viewBox="0 0 20 20" fill="none" xmlns="http://www.w3.org/2000/svg">
<path d="M0 7.61777L5.01279 12.7591L3.83632 20L10 16.5814L16.1637 20L14.9872 12.7591L20 7.61777L13.0946 6.56797L10 0L6.90537 6.56797L0 7.61777Z" fill="white"/>
<path d="M9.64827 11.674C9.64827 11.518 9.67427 11.382 9.72627 11.266C9.77827 11.15 9.84227 11.046 9.91827 10.954C9.99827 10.862 10.0843 10.778 10.1763 10.702C10.2683 10.622 10.3543 10.544 10.4343 10.468C10.5143 10.388 10.5783 10.304 10.6263 10.216C10.6783 10.128 10.7043 10.026 10.7043 9.91C10.7043 9.718 10.6283 9.562 10.4763 9.442C10.3243 9.322 10.1143 9.262 9.84627 9.262C9.60627 9.262 9.39827 9.302 9.22227 9.382C9.04627 9.462 8.89627 9.58 8.77227 9.736L8.33427 9.424C8.50227 9.212 8.71627 9.048 8.97627 8.932C9.23627 8.812 9.54027 8.752 9.88827 8.752C10.1763 8.752 10.4263 8.796 10.6383 8.884C10.8503 8.968 11.0143 9.09 11.1303 9.25C11.2503 9.406 11.3103 9.596 11.3103 9.82C11.3103 9.988 11.2843 10.132 11.2323 10.252C11.1803 10.372 11.1143 10.478 11.0343 10.57C10.9543 10.662 10.8683 10.748 10.7763 10.828C10.6883 10.908 10.6043 10.988 10.5243 11.068C10.4443 11.148 10.3783 11.236 10.3263 11.332C10.2743 11.428 10.2483 11.542 10.2483 11.674H9.64827ZM9.95427 13.036C9.84227 13.036 9.74827 12.998 9.67227 12.922C9.60027 12.846 9.56427 12.756 9.56427 12.652C9.56427 12.54 9.60027 12.448 9.67227 12.376C9.74827 12.304 9.84227 12.268 9.95427 12.268C10.0663 12.268 10.1583 12.304 10.2303 12.376C10.3023 12.448 10.3383 12.54 10.3383 12.652C10.3383 12.756 10.3023 12.846 10.2303 12.922C10.1583 12.998 10.0663 13.036 9.95427 13.036Z" fill="black"/>
</svg>
