<svg width="24" height="24" viewBox="0 0 24 24" fill="none" xmlns="http://www.w3.org/2000/svg">
<path d="M12 23.25C5.75 23.25 0.75 18.25 0.75 12C0.75 5.75 5.75 0.75 12 0.75C18.25 0.75 23.25 5.75 23.25 12C23.25 18.25 18.25 23.25 12 23.25ZM12 2.25C6.5 2.25 2.25 6.5 2.25 12C2.25 17.5 6.75 21.75 12 21.75C17.25 21.75 21.75 17.25 21.75 12C21.75 6.75 17.5 2.25 12 2.25Z" fill="white"/>
<path d="M1.5 12.25H22.5V13H1.5V12.25Z" fill="white"/>
<path d="M11.75 1.5H12.5V22.5H11.75V1.5Z" fill="white"/>
<path d="M2.5 7.25H21.75V8H2.5V7.25ZM3.75 17.25H20.75V18H3.75V17.25Z" fill="white"/>
<path d="M12 22.5C9 22.5 6.5 18 6.5 12C6.5 6 9 1.5 12 1.5V2.25C9.5 2.25 7.25 6.75 7.25 12C7.25 17.25 9.5 21.75 12 21.75V22.5ZM12.25 22.5V21.75C14.75 21.75 17 17.25 17 12C17 6.75 14.75 2.25 12.25 2.25V1.5C15.25 1.5 17.75 6 17.75 12C17.75 18 15.25 22.5 12.25 22.5Z" fill="white"/>
</svg>
