<svg width="40" height="40" viewBox="0 0 40 40" fill="none" xmlns="http://www.w3.org/2000/svg">
<path d="M20 31.25C13.75 31.25 8.75 26.25 8.75 20C8.75 13.75 13.75 8.75 20 8.75C26.25 8.75 31.25 13.75 31.25 20C31.25 26.25 26.25 31.25 20 31.25ZM20 10.25C14.5 10.25 10.25 14.5 10.25 20C10.25 25.5 14.75 29.75 20 29.75C25.25 29.75 29.75 25.25 29.75 20C29.75 14.75 25.5 10.25 20 10.25Z" fill="white"/>
<path d="M9.5 20.25H30.5V21H9.5V20.25Z" fill="white"/>
<path d="M19.75 9.5H20.5V30.5H19.75V9.5Z" fill="white"/>
<path d="M10.5 15.25H29.75V16H10.5V15.25ZM11.75 25.25H28.75V26H11.75V25.25Z" fill="white"/>
<path d="M20 30.5C17 30.5 14.5 26 14.5 20C14.5 14 17 9.5 20 9.5V10.25C17.5 10.25 15.25 14.75 15.25 20C15.25 25.25 17.5 29.75 20 29.75V30.5ZM20.25 30.5V29.75C22.75 29.75 25 25.25 25 20C25 14.75 22.75 10.25 20.25 10.25V9.5C23.25 9.5 25.75 14 25.75 20C25.75 26 23.25 30.5 20.25 30.5Z" fill="white"/>
</svg>
