<svg width="14" height="18" viewBox="0 0 14 18" fill="none" xmlns="http://www.w3.org/2000/svg">
<path d="M6.37516 13.0835H7.62516V7.72933H6.37516V13.0835ZM7.00016 6.35433C7.20086 6.35433 7.36909 6.28645 7.50485 6.15068C7.64061 6.01492 7.7085 5.84669 7.7085 5.646C7.7085 5.4453 7.64061 5.27707 7.50485 5.14131C7.36909 5.00555 7.20086 4.93766 7.00016 4.93766C6.79947 4.93766 6.63124 5.00555 6.49547 5.14131C6.35971 5.27707 6.29183 5.4453 6.29183 5.646C6.29183 5.84669 6.35971 6.01492 6.49547 6.15068C6.63124 6.28645 6.79947 6.35433 7.00016 6.35433ZM7.00016 17.3127C5.05572 16.8266 3.4585 15.6981 2.2085 13.9272C0.958496 12.1564 0.333496 10.2154 0.333496 8.10433V3.146L7.00016 0.645996L13.6668 3.146V8.10433C13.6668 10.2154 13.0418 12.1564 11.7918 13.9272C10.5418 15.6981 8.94461 16.8266 7.00016 17.3127ZM7.00016 16.021C8.59738 15.4932 9.89947 14.4967 10.9064 13.0314C11.9134 11.5661 12.4168 9.92377 12.4168 8.10433V4.021L7.00016 1.97933L1.5835 4.021V8.10433C1.5835 9.92377 2.08697 11.5661 3.09391 13.0314C4.10086 14.4967 5.40294 15.4932 7.00016 16.021Z" fill="#8B0C69"/>
</svg>
