<svg width="18" height="18" viewBox="0 0 18 18" fill="none" xmlns="http://www.w3.org/2000/svg">
<path d="M7.08366 17.3333L6.66699 14.7083C6.4031 14.6111 6.12533 14.4791 5.83366 14.3125C5.54199 14.1458 5.28505 13.9722 5.06283 13.7916L2.60449 14.9166L0.666992 11.5L2.91699 9.85413C2.88921 9.72913 2.87185 9.58676 2.86491 9.42704C2.85796 9.26732 2.85449 9.12496 2.85449 8.99996C2.85449 8.87496 2.85796 8.7326 2.86491 8.57288C2.87185 8.41315 2.88921 8.27079 2.91699 8.14579L0.666992 6.49996L2.60449 3.08329L5.06283 4.20829C5.28505 4.02774 5.54199 3.85413 5.83366 3.68746C6.12533 3.52079 6.4031 3.39579 6.66699 3.31246L7.08366 0.666626H10.917L11.3337 3.29163C11.5975 3.38885 11.8788 3.51732 12.1774 3.67704C12.476 3.83676 12.7295 4.01385 12.9378 4.20829L15.3962 3.08329L17.3337 6.49996L15.0837 8.10413C15.1114 8.24301 15.1288 8.39232 15.1357 8.55204C15.1427 8.71176 15.1462 8.86107 15.1462 8.99996C15.1462 9.13885 15.1427 9.28468 15.1357 9.43746C15.1288 9.59024 15.1114 9.73607 15.0837 9.87496L17.3337 11.5L15.3962 14.9166L12.9378 13.7916C12.7156 13.9722 12.4621 14.1493 12.1774 14.3229C11.8927 14.4965 11.6114 14.625 11.3337 14.7083L10.917 17.3333H7.08366ZM9.00033 11.7083C9.75033 11.7083 10.3892 11.4444 10.917 10.9166C11.4448 10.3888 11.7087 9.74996 11.7087 8.99996C11.7087 8.24996 11.4448 7.61107 10.917 7.08329C10.3892 6.55551 9.75033 6.29163 9.00033 6.29163C8.25033 6.29163 7.61144 6.55551 7.08366 7.08329C6.55588 7.61107 6.29199 8.24996 6.29199 8.99996C6.29199 9.74996 6.55588 10.3888 7.08366 10.9166C7.61144 11.4444 8.25033 11.7083 9.00033 11.7083ZM9.00033 10.4583C8.59755 10.4583 8.2538 10.3159 7.96908 10.0312C7.68435 9.74649 7.54199 9.40274 7.54199 8.99996C7.54199 8.59718 7.68435 8.25343 7.96908 7.96871C8.2538 7.68399 8.59755 7.54163 9.00033 7.54163C9.4031 7.54163 9.74685 7.68399 10.0316 7.96871C10.3163 8.25343 10.4587 8.59718 10.4587 8.99996C10.4587 9.40274 10.3163 9.74649 10.0316 10.0312C9.74685 10.3159 9.4031 10.4583 9.00033 10.4583ZM8.08366 16.0833H9.91699L10.2087 13.75C10.667 13.6388 11.101 13.4652 11.5107 13.2291C11.9205 12.993 12.292 12.7083 12.6253 12.375L14.8337 13.3333L15.667 11.8333L13.7087 10.3958C13.7642 10.1597 13.8094 9.92704 13.8441 9.69788C13.8788 9.46871 13.8962 9.23607 13.8962 8.99996C13.8962 8.76385 13.8823 8.53121 13.8545 8.30204C13.8267 8.07288 13.7781 7.84024 13.7087 7.60413L15.667 6.16663L14.8337 4.66663L12.6253 5.62496C12.3059 5.26385 11.9448 4.96176 11.542 4.71871C11.1392 4.47565 10.6948 4.3194 10.2087 4.24996L9.91699 1.91663H8.08366L7.79199 4.24996C7.31977 4.34718 6.8788 4.51385 6.46908 4.74996C6.05935 4.98607 5.69477 5.27774 5.37533 5.62496L3.16699 4.66663L2.33366 6.16663L4.29199 7.60413C4.23644 7.84024 4.1913 8.07288 4.15658 8.30204C4.12185 8.53121 4.10449 8.76385 4.10449 8.99996C4.10449 9.23607 4.12185 9.46871 4.15658 9.69788C4.1913 9.92704 4.23644 10.1597 4.29199 10.3958L2.33366 11.8333L3.16699 13.3333L5.37533 12.375C5.70866 12.7083 6.08019 12.993 6.48991 13.2291C6.89963 13.4652 7.33366 13.6388 7.79199 13.75L8.08366 16.0833Z" fill="black" fill-opacity="0.7"/>
</svg>
