<svg width="10" height="12" viewBox="0 0 10 12" fill="none" xmlns="http://www.w3.org/2000/svg">
<path d="M4.3585 7.93935L7.6835 4.61436L7.071 4.01644L4.40225 6.68519L2.92933 5.21227L2.28766 5.85394L4.3585 7.93935ZM5.00016 11.8185C3.63905 11.4782 2.521 10.6883 1.646 9.44873C0.770996 8.20915 0.333496 6.85047 0.333496 5.37269V1.90186L5.00016 0.151855L9.66683 1.90186V5.37269C9.66683 6.85047 9.22933 8.20915 8.35433 9.44873C7.47933 10.6883 6.36127 11.4782 5.00016 11.8185ZM5.00016 10.9144C6.11822 10.5449 7.02968 9.84734 7.73454 8.82165C8.4394 7.79595 8.79183 6.6463 8.79183 5.37269V2.51436L5.00016 1.08519L1.2085 2.51436V5.37269C1.2085 6.6463 1.56093 7.79595 2.26579 8.82165C2.97065 9.84734 3.88211 10.5449 5.00016 10.9144Z" fill="#07A53D"/>
</svg>
