<svg width="20" height="20" viewBox="0 0 20 20" fill="none" xmlns="http://www.w3.org/2000/svg">
<path d="M7.75033 13.3333H9.00033V10.5833H11.7503V9.33334H9.00033V6.58334H7.75033V9.33334H5.00033V10.5833H7.75033V13.3333ZM2.91699 16.6667C2.58366 16.6667 2.29199 16.5417 2.04199 16.2917C1.79199 16.0417 1.66699 15.75 1.66699 15.4167V4.58334C1.66699 4.25001 1.79199 3.95834 2.04199 3.70834C2.29199 3.45834 2.58366 3.33334 2.91699 3.33334H13.7503C14.0837 3.33334 14.3753 3.45834 14.6253 3.70834C14.8753 3.95834 15.0003 4.25001 15.0003 4.58334V9.06251L18.3337 5.72918V14.2708L15.0003 10.9375V15.4167C15.0003 15.75 14.8753 16.0417 14.6253 16.2917C14.3753 16.5417 14.0837 16.6667 13.7503 16.6667H2.91699ZM2.91699 15.4167H13.7503V4.58334H2.91699V15.4167Z" fill="black"/>
</svg>
