<svg width="24" height="24" viewBox="0 0 24 24" fill="none" xmlns="http://www.w3.org/2000/svg">
<path d="M20.8 7.3C20 6.8 19 6.6 18.1 6.9L15.8 7.7C15.2 6.1 13.7 5 12 5H6C3.8 5 2 6.8 2 9V15C2 17.2 3.8 19 6 19H12C13.7 19 15.2 17.9 15.8 16.3L18.1 17.1C18.4 17.2 18.7 17.3 19.1 17.3C19.7 17.3 20.3 17.1 20.8 16.7C21.6 16.1 22 15.2 22 14.3V9.8C22 8.8 21.5 7.9 20.8 7.3ZM12 17H6C4.9 17 4 16.1 4 15V9C4 7.9 4.9 7 6 7H12C13.1 7 14 7.9 14 9V15C14 16.1 13.1 17 12 17ZM20 14.2C20 14.5 19.8 14.8 19.6 15C19.3 15.2 19 15.2 18.7 15.1L16 14.3V9.7L18.7 8.8C19 8.7 19.3 8.8 19.6 9C19.8 9.2 20 9.4 20 9.8V14.2Z" fill="white"/>
</svg>
